<svg xmlns="http://www.w3.org/2000/svg" xmlns:xlink="http://www.w3.org/1999/xlink" width="40" zoomAndPan="magnify" viewBox="0 0 30 30.000001" height="40" preserveAspectRatio="xMidYMid meet" version="1.0"><defs><clipPath id="eda85f6f29"><path d="M 2.371094 1.597656 L 27.773438 1.597656 L 27.773438 27.398438 L 2.371094 27.398438 Z M 2.371094 1.597656 " clip-rule="nonzero"/></clipPath><clipPath id="0edf691ff3"><path d="M 6.566406 1.597656 L 23.578125 1.597656 C 25.894531 1.597656 27.773438 3.476562 27.773438 5.792969 L 27.773438 23.238281 C 27.773438 25.558594 25.894531 27.433594 23.578125 27.433594 L 6.566406 27.433594 C 4.25 27.433594 2.371094 25.558594 2.371094 23.238281 L 2.371094 5.792969 C 2.371094 3.476562 4.25 1.597656 6.566406 1.597656 Z M 6.566406 1.597656 " clip-rule="nonzero"/></clipPath><linearGradient x1="0.000000182857" gradientTransform="matrix(0.0992314, 0, 0, 0.0992314, 2.370967, 1.596079)" y1="130.194" x2="255.999986" gradientUnits="userSpaceOnUse" y2="130.194" id="a1c14b9f3e"><stop stop-opacity="1" stop-color="rgb(100%, 19.198608%, 19.198608%)" offset="0"/><stop stop-opacity="1" stop-color="rgb(100%, 19.345093%, 19.241333%)" offset="0.0078125"/><stop stop-opacity="1" stop-color="rgb(100%, 19.639587%, 19.328308%)" offset="0.015625"/><stop stop-opacity="1" stop-color="rgb(100%, 19.934082%, 19.413757%)" offset="0.0234375"/><stop stop-opacity="1" stop-color="rgb(100%, 20.230103%, 19.499207%)" offset="0.03125"/><stop stop-opacity="1" stop-color="rgb(100%, 20.524597%, 19.586182%)" offset="0.0390625"/><stop stop-opacity="1" stop-color="rgb(100%, 20.819092%, 19.671631%)" offset="0.046875"/><stop stop-opacity="1" stop-color="rgb(100%, 21.113586%, 19.75708%)" offset="0.0546875"/><stop stop-opacity="1" stop-color="rgb(100%, 21.408081%, 19.844055%)" offset="0.0625"/><stop stop-opacity="1" stop-color="rgb(100%, 21.702576%, 19.929504%)" offset="0.0703125"/><stop stop-opacity="1" stop-color="rgb(100%, 21.99707%, 20.014954%)" offset="0.078125"/><stop stop-opacity="1" stop-color="rgb(100%, 22.291565%, 20.101929%)" offset="0.0859375"/><stop stop-opacity="1" stop-color="rgb(100%, 22.58606%, 20.187378%)" offset="0.09375"/><stop stop-opacity="1" stop-color="rgb(100%, 22.880554%, 20.272827%)" offset="0.101562"/><stop stop-opacity="1" stop-color="rgb(100%, 23.175049%, 20.359802%)" offset="0.109375"/><stop stop-opacity="1" stop-color="rgb(100%, 23.469543%, 20.445251%)" offset="0.117187"/><stop stop-opacity="1" stop-color="rgb(100%, 23.764038%, 20.530701%)" offset="0.125"/><stop stop-opacity="1" stop-color="rgb(100%, 24.058533%, 20.617676%)" offset="0.132812"/><stop stop-opacity="1" stop-color="rgb(100%, 24.353027%, 20.703125%)" offset="0.140625"/><stop stop-opacity="1" stop-color="rgb(100%, 24.647522%, 20.788574%)" offset="0.148437"/><stop stop-opacity="1" stop-color="rgb(100%, 24.942017%, 20.874023%)" offset="0.15625"/><stop stop-opacity="1" stop-color="rgb(100%, 25.236511%, 20.960999%)" offset="0.164062"/><stop stop-opacity="1" stop-color="rgb(100%, 25.531006%, 21.046448%)" offset="0.171875"/><stop stop-opacity="1" stop-color="rgb(100%, 25.8255%, 21.131897%)" offset="0.179688"/><stop stop-opacity="1" stop-color="rgb(100%, 26.119995%, 21.218872%)" offset="0.1875"/><stop stop-opacity="1" stop-color="rgb(100%, 26.41449%, 21.304321%)" offset="0.195312"/><stop stop-opacity="1" stop-color="rgb(100%, 26.708984%, 21.389771%)" offset="0.203125"/><stop stop-opacity="1" stop-color="rgb(100%, 27.003479%, 21.476746%)" offset="0.210938"/><stop stop-opacity="1" stop-color="rgb(100%, 27.297974%, 21.562195%)" offset="0.21875"/><stop stop-opacity="1" stop-color="rgb(100%, 27.592468%, 21.647644%)" offset="0.226562"/><stop stop-opacity="1" stop-color="rgb(100%, 27.886963%, 21.734619%)" offset="0.234375"/><stop stop-opacity="1" stop-color="rgb(100%, 28.181458%, 21.820068%)" offset="0.242188"/><stop stop-opacity="1" stop-color="rgb(100%, 28.475952%, 21.905518%)" offset="0.25"/><stop stop-opacity="1" stop-color="rgb(100%, 28.770447%, 21.992493%)" offset="0.257813"/><stop stop-opacity="1" stop-color="rgb(100%, 29.064941%, 22.077942%)" offset="0.265625"/><stop stop-opacity="1" stop-color="rgb(100%, 29.359436%, 22.163391%)" offset="0.273438"/><stop stop-opacity="1" stop-color="rgb(100%, 29.653931%, 22.250366%)" offset="0.28125"/><stop stop-opacity="1" stop-color="rgb(100%, 29.948425%, 22.335815%)" offset="0.289062"/><stop stop-opacity="1" stop-color="rgb(100%, 30.24292%, 22.421265%)" offset="0.296875"/><stop stop-opacity="1" stop-color="rgb(100%, 30.537415%, 22.50824%)" offset="0.304688"/><stop stop-opacity="1" stop-color="rgb(100%, 30.831909%, 22.593689%)" offset="0.3125"/><stop stop-opacity="1" stop-color="rgb(100%, 31.126404%, 22.679138%)" offset="0.320312"/><stop stop-opacity="1" stop-color="rgb(100%, 31.420898%, 22.766113%)" offset="0.328125"/><stop stop-opacity="1" stop-color="rgb(100%, 31.715393%, 22.851562%)" offset="0.335938"/><stop stop-opacity="1" stop-color="rgb(100%, 32.009888%, 22.937012%)" offset="0.34375"/><stop stop-opacity="1" stop-color="rgb(100%, 32.304382%, 23.022461%)" offset="0.351563"/><stop stop-opacity="1" stop-color="rgb(100%, 32.600403%, 23.109436%)" offset="0.359375"/><stop stop-opacity="1" stop-color="rgb(100%, 32.894897%, 23.194885%)" offset="0.367188"/><stop stop-opacity="1" stop-color="rgb(100%, 33.189392%, 23.280334%)" offset="0.375"/><stop stop-opacity="1" stop-color="rgb(100%, 33.483887%, 23.36731%)" offset="0.382812"/><stop stop-opacity="1" stop-color="rgb(100%, 33.778381%, 23.452759%)" offset="0.390625"/><stop stop-opacity="1" stop-color="rgb(100%, 34.072876%, 23.538208%)" offset="0.398438"/><stop stop-opacity="1" stop-color="rgb(100%, 34.367371%, 23.625183%)" offset="0.40625"/><stop stop-opacity="1" stop-color="rgb(100%, 34.661865%, 23.710632%)" offset="0.414063"/><stop stop-opacity="1" stop-color="rgb(100%, 34.95636%, 23.796082%)" offset="0.421875"/><stop stop-opacity="1" stop-color="rgb(100%, 35.250854%, 23.883057%)" offset="0.429688"/><stop stop-opacity="1" stop-color="rgb(100%, 35.545349%, 23.968506%)" offset="0.4375"/><stop stop-opacity="1" stop-color="rgb(100%, 35.839844%, 24.053955%)" offset="0.445312"/><stop stop-opacity="1" stop-color="rgb(100%, 36.134338%, 24.14093%)" offset="0.453125"/><stop stop-opacity="1" stop-color="rgb(100%, 36.428833%, 24.226379%)" offset="0.460937"/><stop stop-opacity="1" stop-color="rgb(100%, 36.723328%, 24.311829%)" offset="0.46875"/><stop stop-opacity="1" stop-color="rgb(100%, 37.017822%, 24.398804%)" offset="0.476563"/><stop stop-opacity="1" stop-color="rgb(100%, 37.312317%, 24.484253%)" offset="0.484375"/><stop stop-opacity="1" stop-color="rgb(100%, 37.606812%, 24.569702%)" offset="0.492188"/><stop stop-opacity="1" stop-color="rgb(100%, 37.901306%, 24.656677%)" offset="0.5"/><stop stop-opacity="1" stop-color="rgb(100%, 38.195801%, 24.742126%)" offset="0.507812"/><stop stop-opacity="1" stop-color="rgb(100%, 38.490295%, 24.827576%)" offset="0.515625"/><stop stop-opacity="1" stop-color="rgb(100%, 38.78479%, 24.914551%)" offset="0.523438"/><stop stop-opacity="1" stop-color="rgb(100%, 39.079285%, 25%)" offset="0.53125"/><stop stop-opacity="1" stop-color="rgb(100%, 39.373779%, 25.085449%)" offset="0.539062"/><stop stop-opacity="1" stop-color="rgb(100%, 39.668274%, 25.170898%)" offset="0.546875"/><stop stop-opacity="1" stop-color="rgb(100%, 39.962769%, 25.257874%)" offset="0.554688"/><stop stop-opacity="1" stop-color="rgb(100%, 40.257263%, 25.343323%)" offset="0.5625"/><stop stop-opacity="1" stop-color="rgb(100%, 40.551758%, 25.428772%)" offset="0.570312"/><stop stop-opacity="1" stop-color="rgb(100%, 40.846252%, 25.515747%)" offset="0.578125"/><stop stop-opacity="1" stop-color="rgb(100%, 41.140747%, 25.601196%)" offset="0.585938"/><stop stop-opacity="1" stop-color="rgb(100%, 41.435242%, 25.686646%)" offset="0.59375"/><stop stop-opacity="1" stop-color="rgb(100%, 41.729736%, 25.773621%)" offset="0.601562"/><stop stop-opacity="1" stop-color="rgb(100%, 42.024231%, 25.85907%)" offset="0.609375"/><stop stop-opacity="1" stop-color="rgb(100%, 42.318726%, 25.944519%)" offset="0.617188"/><stop stop-opacity="1" stop-color="rgb(100%, 42.61322%, 26.031494%)" offset="0.625"/><stop stop-opacity="1" stop-color="rgb(100%, 42.907715%, 26.116943%)" offset="0.632813"/><stop stop-opacity="1" stop-color="rgb(100%, 43.202209%, 26.202393%)" offset="0.640625"/><stop stop-opacity="1" stop-color="rgb(100%, 43.496704%, 26.289368%)" offset="0.648438"/><stop stop-opacity="1" stop-color="rgb(100%, 43.791199%, 26.374817%)" offset="0.65625"/><stop stop-opacity="1" stop-color="rgb(100%, 44.085693%, 26.460266%)" offset="0.664062"/><stop stop-opacity="1" stop-color="rgb(100%, 44.380188%, 26.547241%)" offset="0.671875"/><stop stop-opacity="1" stop-color="rgb(100%, 44.674683%, 26.63269%)" offset="0.679688"/><stop stop-opacity="1" stop-color="rgb(100%, 44.970703%, 26.71814%)" offset="0.6875"/><stop stop-opacity="1" stop-color="rgb(100%, 45.265198%, 26.805115%)" offset="0.695312"/><stop stop-opacity="1" stop-color="rgb(100%, 45.559692%, 26.890564%)" offset="0.703125"/><stop stop-opacity="1" stop-color="rgb(100%, 45.854187%, 26.976013%)" offset="0.710938"/><stop stop-opacity="1" stop-color="rgb(100%, 46.148682%, 27.062988%)" offset="0.71875"/><stop stop-opacity="1" stop-color="rgb(100%, 46.443176%, 27.148438%)" offset="0.726563"/><stop stop-opacity="1" stop-color="rgb(100%, 46.737671%, 27.233887%)" offset="0.734375"/><stop stop-opacity="1" stop-color="rgb(100%, 47.032166%, 27.319336%)" offset="0.742188"/><stop stop-opacity="1" stop-color="rgb(100%, 47.32666%, 27.406311%)" offset="0.75"/><stop stop-opacity="1" stop-color="rgb(100%, 47.621155%, 27.49176%)" offset="0.757812"/><stop stop-opacity="1" stop-color="rgb(100%, 47.915649%, 27.577209%)" offset="0.765625"/><stop stop-opacity="1" stop-color="rgb(100%, 48.210144%, 27.664185%)" offset="0.773438"/><stop stop-opacity="1" stop-color="rgb(100%, 48.504639%, 27.749634%)" offset="0.78125"/><stop stop-opacity="1" stop-color="rgb(100%, 48.799133%, 27.835083%)" offset="0.789062"/><stop stop-opacity="1" stop-color="rgb(100%, 49.093628%, 27.922058%)" offset="0.796875"/><stop stop-opacity="1" stop-color="rgb(100%, 49.388123%, 28.007507%)" offset="0.804688"/><stop stop-opacity="1" stop-color="rgb(100%, 49.682617%, 28.092957%)" offset="0.8125"/><stop stop-opacity="1" stop-color="rgb(100%, 49.977112%, 28.179932%)" offset="0.820312"/><stop stop-opacity="1" stop-color="rgb(100%, 50.271606%, 28.265381%)" offset="0.828125"/><stop stop-opacity="1" stop-color="rgb(100%, 50.566101%, 28.35083%)" offset="0.835938"/><stop stop-opacity="1" stop-color="rgb(100%, 50.860596%, 28.437805%)" offset="0.84375"/><stop stop-opacity="1" stop-color="rgb(100%, 51.15509%, 28.523254%)" offset="0.851563"/><stop stop-opacity="1" stop-color="rgb(100%, 51.449585%, 28.608704%)" offset="0.859375"/><stop stop-opacity="1" stop-color="rgb(100%, 51.74408%, 28.695679%)" offset="0.867188"/><stop stop-opacity="1" stop-color="rgb(100%, 52.038574%, 28.781128%)" offset="0.875"/><stop stop-opacity="1" stop-color="rgb(100%, 52.333069%, 28.866577%)" offset="0.882812"/><stop stop-opacity="1" stop-color="rgb(100%, 52.627563%, 28.953552%)" offset="0.890625"/><stop stop-opacity="1" stop-color="rgb(100%, 52.922058%, 29.039001%)" offset="0.898438"/><stop stop-opacity="1" stop-color="rgb(100%, 53.216553%, 29.124451%)" offset="0.90625"/><stop stop-opacity="1" stop-color="rgb(100%, 53.511047%, 29.211426%)" offset="0.914062"/><stop stop-opacity="1" stop-color="rgb(100%, 53.805542%, 29.296875%)" offset="0.921875"/><stop stop-opacity="1" stop-color="rgb(100%, 54.100037%, 29.382324%)" offset="0.929688"/><stop stop-opacity="1" stop-color="rgb(100%, 54.394531%, 29.467773%)" offset="0.9375"/><stop stop-opacity="1" stop-color="rgb(100%, 54.689026%, 29.554749%)" offset="0.945312"/><stop stop-opacity="1" stop-color="rgb(100%, 54.983521%, 29.640198%)" offset="0.953125"/><stop stop-opacity="1" stop-color="rgb(100%, 55.278015%, 29.725647%)" offset="0.960938"/><stop stop-opacity="1" stop-color="rgb(100%, 55.57251%, 29.812622%)" offset="0.96875"/><stop stop-opacity="1" stop-color="rgb(100%, 55.867004%, 29.898071%)" offset="0.976562"/><stop stop-opacity="1" stop-color="rgb(100%, 56.161499%, 29.983521%)" offset="0.984375"/><stop stop-opacity="1" stop-color="rgb(100%, 56.455994%, 30.070496%)" offset="0.992188"/><stop stop-opacity="1" stop-color="rgb(100%, 56.750488%, 30.155945%)" offset="1"/></linearGradient><clipPath id="bceed40523"><path d="M 2.953125 2.46875 L 26.902344 2.46875 L 26.902344 26.417969 L 2.953125 26.417969 Z M 2.953125 2.46875 " clip-rule="nonzero"/></clipPath></defs><g clip-path="url(#eda85f6f29)"><g clip-path="url(#0edf691ff3)"><path fill="url(#a1c14b9f3e)" d="M 2.371094 1.597656 L 2.371094 27.398438 L 27.773438 27.398438 L 27.773438 1.597656 Z M 2.371094 1.597656 " fill-rule="nonzero"/></g></g><path fill="#fffdfd" d="M 17.421875 15.742188 L 22.601562 11.976562 L 22.601562 19.203125 C 22.601562 19.253906 22.59375 19.300781 22.578125 19.347656 C 22.566406 19.339844 22.554688 19.328125 22.539062 19.316406 Z M 15.21875 17.339844 C 15.203125 17.351562 15.183594 17.363281 15.167969 17.371094 C 15.050781 17.429688 14.9375 17.429688 14.824219 17.371094 C 14.804688 17.363281 14.789062 17.351562 14.773438 17.339844 L 13.21875 16.214844 L 8.214844 19.710938 L 21.773438 19.710938 L 16.769531 16.214844 Z M 7.390625 11.976562 L 7.390625 19.203125 C 7.390625 19.253906 7.398438 19.300781 7.414062 19.347656 C 7.425781 19.339844 7.4375 19.328125 7.449219 19.316406 L 12.570312 15.742188 Z M 22.09375 9.3125 L 7.894531 9.3125 C 7.757812 9.3125 7.636719 9.363281 7.539062 9.460938 C 7.4375 9.5625 7.390625 9.679688 7.390625 9.820312 L 7.390625 11.042969 L 13.449219 15.441406 L 14.996094 16.5625 L 16.539062 15.441406 L 22.601562 11.042969 L 22.601562 9.820312 C 22.601562 9.679688 22.550781 9.5625 22.453125 9.460938 C 22.355469 9.363281 22.234375 9.3125 22.09375 9.3125 Z M 22.09375 9.3125 " fill-opacity="1" fill-rule="nonzero"/><g clip-path="url(#bceed40523)"><path fill="#fffdfd" d="M 14.996094 26.554688 C 14.203125 26.554688 13.421875 26.476562 12.644531 26.324219 C 11.871094 26.167969 11.117188 25.941406 10.386719 25.636719 C 9.65625 25.335938 8.960938 24.964844 8.304688 24.527344 C 7.648438 24.085938 7.039062 23.585938 6.480469 23.027344 C 5.921875 22.46875 5.421875 21.859375 4.980469 21.203125 C 4.542969 20.546875 4.171875 19.851562 3.867188 19.121094 C 3.566406 18.390625 3.335938 17.636719 3.183594 16.859375 C 3.027344 16.085938 2.953125 15.300781 2.953125 14.511719 C 2.953125 13.722656 3.027344 12.9375 3.183594 12.160156 C 3.335938 11.386719 3.566406 10.632812 3.867188 9.902344 C 4.171875 9.171875 4.542969 8.476562 4.980469 7.820312 C 5.421875 7.164062 5.921875 6.554688 6.480469 5.996094 C 7.039062 5.4375 7.648438 4.9375 8.304688 4.496094 C 8.960938 4.058594 9.65625 3.6875 10.386719 3.382812 C 11.117188 3.082031 11.871094 2.851562 12.644531 2.699219 C 13.421875 2.542969 14.203125 2.46875 14.996094 2.46875 C 15.785156 2.46875 16.570312 2.542969 17.34375 2.699219 C 18.121094 2.851562 18.875 3.082031 19.605469 3.382812 C 20.335938 3.6875 21.027344 4.058594 21.6875 4.496094 C 22.34375 4.9375 22.953125 5.4375 23.511719 5.996094 C 24.070312 6.554688 24.570312 7.164062 25.007812 7.820312 C 25.449219 8.476562 25.820312 9.171875 26.121094 9.902344 C 26.425781 10.632812 26.652344 11.386719 26.808594 12.160156 C 26.960938 12.9375 27.039062 13.722656 27.039062 14.511719 C 27.039062 15.300781 26.960938 16.085938 26.804688 16.859375 C 26.652344 17.636719 26.421875 18.386719 26.117188 19.117188 C 25.816406 19.847656 25.445312 20.542969 25.003906 21.199219 C 24.566406 21.855469 24.066406 22.464844 23.507812 23.023438 C 22.949219 23.582031 22.339844 24.082031 21.683594 24.519531 C 21.027344 24.960938 20.332031 25.332031 19.601562 25.636719 C 18.871094 25.9375 18.121094 26.167969 17.34375 26.320312 C 16.570312 26.476562 15.785156 26.554688 14.996094 26.554688 Z M 14.996094 3.226562 C 14.253906 3.226562 13.519531 3.300781 12.792969 3.445312 C 12.066406 3.589844 11.363281 3.804688 10.675781 4.085938 C 9.992188 4.371094 9.34375 4.71875 8.726562 5.128906 C 8.109375 5.542969 7.539062 6.007812 7.015625 6.53125 C 6.492188 7.058594 6.027344 7.628906 5.613281 8.242188 C 5.203125 8.859375 4.855469 9.507812 4.570312 10.195312 C 4.289062 10.878906 4.074219 11.582031 3.929688 12.308594 C 3.785156 13.035156 3.710938 13.769531 3.710938 14.511719 C 3.710938 15.253906 3.785156 15.984375 3.929688 16.710938 C 4.074219 17.441406 4.289062 18.144531 4.570312 18.828125 C 4.855469 19.515625 5.203125 20.164062 5.613281 20.78125 C 6.027344 21.394531 6.492188 21.964844 7.015625 22.488281 C 7.539062 23.015625 8.109375 23.480469 8.726562 23.894531 C 9.34375 24.304688 9.992188 24.652344 10.675781 24.9375 C 11.363281 25.21875 12.066406 25.433594 12.792969 25.578125 C 13.519531 25.722656 14.253906 25.792969 14.996094 25.792969 C 15.734375 25.792969 16.46875 25.722656 17.195312 25.578125 C 17.921875 25.433594 18.628906 25.21875 19.3125 24.9375 C 19.996094 24.652344 20.648438 24.304688 21.265625 23.894531 C 21.878906 23.480469 22.449219 23.015625 22.972656 22.488281 C 23.496094 21.964844 23.964844 21.394531 24.378906 20.78125 C 24.789062 20.164062 25.136719 19.515625 25.417969 18.828125 C 25.703125 18.144531 25.917969 17.441406 26.0625 16.710938 C 26.207031 15.984375 26.277344 15.253906 26.277344 14.511719 C 26.277344 13.769531 26.203125 13.039062 26.058594 12.3125 C 25.914062 11.585938 25.699219 10.878906 25.417969 10.195312 C 25.132812 9.511719 24.785156 8.863281 24.371094 8.246094 C 23.960938 7.628906 23.492188 7.0625 22.96875 6.539062 C 22.445312 6.011719 21.875 5.546875 21.261719 5.132812 C 20.644531 4.722656 19.996094 4.375 19.3125 4.089844 C 18.628906 3.808594 17.921875 3.59375 17.195312 3.449219 C 16.46875 3.300781 15.734375 3.230469 14.996094 3.226562 Z M 14.996094 3.226562 " fill-opacity="1" fill-rule="nonzero"/></g></svg>